<svg xmlns="http://www.w3.org/2000/svg" viewBox="0 0 256 256" xmlns:xlink="http://www.w3.org/1999/xlink" xml:space="preserve" width="100%" height="100%"><rect xmlns="http://www.w3.org/2000/svg" width="256" height="256" fill="none"></rect><path xmlns="http://www.w3.org/2000/svg" d="M112,24h32a8,8,0,0,1,8,8V80h48a8,8,0,0,1,8,8v32a8,8,0,0,1-8,8H152v96a8,8,0,0,1-8,8H112a8,8,0,0,1-8-8V128H56a8,8,0,0,1-8-8V88a8,8,0,0,1,8-8h48V32A8,8,0,0,1,112,24Z" fill="none" stroke="currentColor" stroke-linecap="round" stroke-linejoin="round" stroke-width="24"></path></svg>